<svg width="300" height="149" viewBox="0 0 300 149" fill="none" xmlns="http://www.w3.org/2000/svg">
<path d="M214.198 90.3359V111.333C188.845 111.333 174.998 97.1341 174.998 77.3088V0H197.176V74.375C197.176 85.7491 202.452 90.325 214.198 90.325" fill="#FF5A00"/>
<path d="M38.9711 127.523C49.6553 127.523 56.2234 120.484 56.2234 109.461V36.7277H78.4019V109.931C78.4019 132.811 61.9706 148.52 38.2595 148.52C24.1709 148.52 11.0236 141.251 3.75488 129.286L23.12 118.733C26.404 124.13 32.7423 127.534 38.9601 127.534" fill="#FF5A00"/>
<path d="M39.2009 91.3102C29.3706 91.3102 21.861 83.7128 21.861 73.4991C21.861 63.2854 29.3706 55.6881 39.2009 55.6881C49.0312 55.6881 56.2233 63.2854 56.2233 73.4991C56.2233 83.7128 48.8889 91.3102 39.2009 91.3102ZM39.2009 35.6658C16.902 35.6658 0 51.977 0 73.4444C0 94.9118 16.902 111.332 39.2009 111.332C61.4997 111.332 78.4018 94.9118 78.4018 73.4444C78.4018 51.977 61.4997 35.6658 39.2009 35.6658Z" fill="#FF5A00"/>
<path d="M165.255 111.333C152.348 111.333 143.076 103.243 143.076 88.2231V36.7277H165.255V111.333Z" fill="#FF5A00"/>
<path d="M126.053 91.3102C116.223 91.3102 108.714 83.7128 108.714 73.4991C108.714 63.2854 116.223 55.6881 126.053 55.6881C135.884 55.6881 143.076 63.2854 143.076 73.4991C143.076 83.7128 135.741 91.3102 126.053 91.3102ZM126.053 35.6658C103.755 35.6658 86.8525 51.977 86.8525 73.4444C86.8525 94.9118 103.755 111.332 126.053 111.332C148.352 111.332 165.254 94.9118 165.254 73.4444C165.254 51.977 148.352 35.6658 126.053 35.6658Z" fill="#FF5A00"/>
<path d="M243.766 36.7167H221.587V146.987H243.766V36.7167Z" fill="#FF5A00"/>
<path d="M260.799 91.3102C251.111 91.3102 243.777 83.7128 243.777 73.4991C243.777 63.2854 251.111 55.6881 260.799 55.6881C270.487 55.6881 278.139 63.2854 278.139 73.4991C278.139 83.7128 270.629 91.3102 260.799 91.3102ZM260.799 35.6658C238.5 35.6658 221.598 52.0865 221.598 73.4444C221.598 94.8023 238.5 111.332 260.799 111.332C283.098 111.332 300 95.0322 300 73.4444C300 51.8566 283.098 35.6658 260.799 35.6658Z" fill="#FF5A00"/>
<path d="M221.587 73.4444C221.587 88.9784 230.432 101.863 243.766 107.807V73.51V39.2017C230.432 45.135 221.587 58.0089 221.587 73.4444Z" fill="#B00F00"/>
<path d="M78.4021 73.4334C78.4021 57.987 69.557 45.1241 56.2236 39.1907V73.4991V107.807C69.557 101.863 78.4021 88.9784 78.4021 73.4444V73.4334Z" fill="#B00F00"/>
<path d="M143.076 39.1907V73.4991V88.2231C143.076 95.3059 145.145 100.856 148.681 104.731C158.84 97.9988 165.266 86.6795 165.266 73.4444C165.266 57.998 156.42 45.135 143.087 39.1907" fill="#B00F00"/>
</svg>
