<svg width="700" height="127" viewBox="0 0 700 127" fill="none" xmlns="http://www.w3.org/2000/svg">
<path d="M289.028 34.8482L242.381 34.8482C229.778 34.8482 219.571 45.0559 219.571 57.6585C219.571 70.2612 229.778 81.4689 242.381 81.4689L265.927 81.4689L289.473 81.4689C295.746 81.4689 300.878 85.6012 300.878 91.874C300.878 98.1468 295.746 103.279 289.473 103.279L252.76 103.279C250.364 96.6642 244.092 91.874 236.678 91.874C227.212 91.874 219.571 99.5155 219.571 108.982C219.571 118.448 227.212 126.089 236.678 126.089C244.092 126.089 250.364 121.299 252.76 114.684L299.407 114.684C312.009 114.684 322.217 104.477 322.217 91.874C322.217 79.2713 312.009 67.0637 299.407 67.0637L275.861 67.0637L252.314 67.0637C246.042 67.0637 240.909 63.9314 240.909 57.6585C240.909 51.3857 246.042 46.2534 252.314 46.2534L289.028 46.2534C291.366 52.8684 297.639 57.6585 305.109 57.6585C314.576 57.6585 322.217 50.0171 322.217 40.5508C322.217 31.0845 314.576 23.4431 305.109 23.4431C297.696 23.4431 291.423 28.2332 289.028 34.8482Z" fill="#FF5A00"/>
<path d="M677.018 107.35C675.936 110.63 672.873 112.845 669.42 112.845H663.019C659.65 112.845 656.642 110.734 655.496 107.565L641.644 69.2532C641.008 67.4933 638.519 67.4933 637.882 69.2532L624.03 107.565C622.884 110.734 619.876 112.845 616.507 112.845H610.253C606.806 112.845 603.746 110.637 602.66 107.365L583.018 48.188C581.299 43.0097 585.155 37.6678 590.611 37.6678H592.274C595.757 37.6678 598.84 39.9209 599.897 43.2392L612.408 82.5055C612.985 84.319 615.53 84.3765 616.189 82.5909L630.84 42.8978C631.999 39.7551 634.995 37.6678 638.345 37.6678H641.318C644.679 37.6678 647.682 39.7687 648.833 42.9263L663.342 82.7001C663.996 84.4926 666.549 84.4386 667.127 82.6201L679.633 43.2462C680.688 39.9243 683.772 37.6678 687.257 37.6678H688.938C694.387 37.6678 698.242 42.998 696.535 48.1736L677.018 107.35Z" fill="#FF5A00"/>
<path d="M530.743 34.33C543.246 34.33 553.365 38.0385 561.1 45.4555C568.835 52.8725 572.702 62.6206 572.702 74.6998C572.702 86.9909 568.835 96.8979 561.1 104.421C553.365 111.944 543.246 115.705 530.743 115.705C518.134 115.705 507.962 111.944 500.227 104.421C492.492 96.8979 488.625 86.9909 488.625 74.6998C488.625 62.6206 492.492 52.8725 500.227 45.4555C507.962 38.0385 518.134 34.33 530.743 34.33ZM530.743 99.0171C537.736 99.0171 543.352 96.7919 547.59 92.3417C551.935 87.8915 554.107 82.0109 554.107 74.6998C554.107 67.6006 551.935 61.8789 547.59 57.5347C543.352 53.1904 537.736 51.0183 530.743 51.0183C523.644 51.0183 517.922 53.1904 513.578 57.5347C509.234 61.8789 507.062 67.6006 507.062 74.6998C507.062 82.0109 509.234 87.8915 513.578 92.3417C517.922 96.7919 523.644 99.0171 530.743 99.0171Z" fill="#FF5A00"/>
<path d="M461.631 0C466.049 0 469.631 3.58172 469.631 8V104.845C469.631 109.263 466.049 112.845 461.631 112.845H459.353C454.935 112.845 451.353 109.263 451.353 104.845V8.00001C451.353 3.58173 454.935 0 459.353 0H461.631Z" fill="#FF5A00"/>
<path d="M371.09 51.1641C371.09 52.2686 371.985 53.1641 373.09 53.1641H413.473C417.891 53.1641 421.473 56.7458 421.473 61.1641V62.806C421.473 67.2243 417.891 70.806 413.473 70.806H373.09C371.985 70.806 371.09 71.7015 371.09 72.806V103.653C371.09 108.071 367.508 111.653 363.09 111.653H360.018C355.599 111.653 352.018 108.071 352.018 103.653V11.5759C352.018 7.15765 355.599 3.57593 360.018 3.57593H420.307C424.725 3.57593 428.307 7.15765 428.307 11.5759V13.2179C428.307 17.6361 424.725 21.2179 420.307 21.2179H373.09C371.985 21.2179 371.09 22.1133 371.09 23.2179V51.1641Z" fill="#FF5A00"/>
<path d="M162.879 35.2839C172.341 35.2839 183.835 36.1824 197.36 37.9794C201.293 38.5019 204.202 41.8789 204.202 45.8465V104.845C204.202 109.263 200.621 112.845 196.202 112.845H191.646C188.486 112.845 185.925 110.283 185.925 107.123V107.123C178.296 112.527 170.19 115.229 161.607 115.229C150.694 115.229 141.899 111.573 135.224 104.262C128.549 96.8453 125.211 87.0442 125.211 74.8591C125.317 62.7799 128.655 53.1908 135.224 46.0916C141.793 38.8865 151.012 35.2839 162.879 35.2839ZM165.581 50.7008C157.846 50.7008 152.177 52.9259 148.575 57.3761C144.972 61.8263 143.171 67.8129 143.171 75.3359C143.171 82.647 145.078 88.5806 148.893 93.1368C152.707 97.587 157.793 99.8121 164.15 99.8121C171.109 99.8121 177.841 97.5004 184.346 92.8769C185.356 92.1592 185.925 90.981 185.925 89.7422V55.4893C185.925 53.478 184.432 51.7738 182.432 51.5636C176.959 50.9884 171.342 50.7008 165.581 50.7008Z" fill="#FF5A00"/>
<path d="M103.6 50.7006C105.809 50.7006 107.6 52.4914 107.6 54.7006V98.2003C107.6 101.396 105.703 104.302 102.733 105.483C86.4029 111.98 71.3899 115.229 57.6939 115.229C40.3169 115.229 26.3305 110.037 15.7347 99.653C5.2449 89.1632 0 75.3887 0 58.3295C0 41.5882 5.50979 28.0786 16.5294 17.8007C27.6549 7.52285 42.2771 2.38391 60.3958 2.38391C70.1487 2.38391 80.0373 3.4021 90.0617 5.43849C94.2822 6.29584 96.8721 10.4878 95.9698 14.6988L95.3991 17.3617C94.493 21.5905 90.3889 24.3235 86.1238 23.6073C75.0592 21.7495 66.96 20.8205 61.8262 20.8205C49.3232 20.8205 39.2043 24.2642 31.4694 31.1514C23.8405 38.0386 20.026 47.098 20.026 58.3295C20.026 69.8789 23.4696 79.1502 30.3568 86.1434C37.2441 93.1366 46.3564 96.6332 57.6939 96.6332C66.8786 96.6332 76.5043 95.31 86.5711 92.6635C88.2983 92.2094 89.4812 90.6338 89.4812 88.8479V72.3425C89.4812 70.1334 87.6903 68.3425 85.4812 68.3425H54.5418C52.3326 68.3425 50.5418 66.5517 50.5418 64.3425V50.7006H103.6Z" fill="#FF5A00"/>
</svg>
